<svg width="1440" height="423" viewBox="0 0 1440 423" fill="none" xmlns="http://www.w3.org/2000/svg">
<path d="M241.953 187.062L270.078 133.938V423H241.953V187.062ZM298.203 79.25L326.328 26.125V423H298.203V79.25ZM354.453 -27L382.578 -80.5156V423H354.453V-27ZM165.781 173.781L149.766 144.484L343.516 -223.875H375.156L165.781 173.781ZM133.359 112.453L116.953 82.7656L279.453 -223.875H311.484L133.359 112.453ZM-54.9219 137.062L-26.7969 190.188V423H-54.9219V137.062ZM-111.172 30.0312L-83.0469 83.1562V423H-111.172V30.0312ZM-167.422 -77L-139.297 -23.4844V423H-167.422V-77ZM59.9219 254.25H28.2812L-195.547 -170.359V423H-223.672V-223.875H-192.031L59.9219 254.25ZM123.594 254.25H91.5625L-160 -223.875H-127.969L123.594 254.25ZM410.703 -170.359L186.875 254.25H154.844L-96.3281 -223.875H-64.6875L171.25 224.562L406.797 -223.875H438.828V423H410.703V-170.359ZM513.047 -223.875H541.172V423H513.047V-223.875ZM681.797 -223.875H709.922V282.375H934.922V310.5H709.922V338.625H934.922V366.75H709.922V394.875H934.922V423H681.797V-223.875ZM625.547 -223.875H653.672V423H625.547V-223.875ZM569.297 -223.875H597.422V423H569.297V-223.875ZM1463.05 187.062L1491.17 133.938V423H1463.05V187.062ZM1519.3 79.25L1547.42 26.125V423H1519.3V79.25ZM1575.55 -27L1603.67 -80.5156V423H1575.55V-27ZM1386.88 173.781L1370.86 144.484L1564.61 -223.875H1596.25L1386.88 173.781ZM1354.45 112.453L1338.05 82.7656L1500.55 -223.875H1532.58L1354.45 112.453ZM1166.17 137.062L1194.3 190.188V423H1166.17V137.062ZM1109.92 30.0312L1138.05 83.1562V423H1109.92V30.0312ZM1053.67 -77L1081.8 -23.4844V423H1053.67V-77ZM1281.02 254.25H1249.38L1025.55 -170.359V423H997.422V-223.875H1029.06L1281.02 254.25ZM1344.69 254.25H1312.66L1061.09 -223.875H1093.12L1344.69 254.25ZM1631.8 -170.359L1407.97 254.25H1375.94L1124.77 -223.875H1156.41L1392.34 224.562L1627.89 -223.875H1659.92V423H1631.8V-170.359Z" fill="#4F4F4F"/>
</svg>
