<svg width="60" height="60" viewBox="0 0 60 60" fill="none" xmlns="http://www.w3.org/2000/svg">
<path fill-rule="evenodd" clip-rule="evenodd" d="M30 0C13.4315 0 0 13.4315 0 30C0 46.5685 13.4315 60 30 60C46.5685 60 60 46.5685 60 30C60 13.4315 46.5685 0 30 0ZM36.6128 23.0202C34.7134 21.1165 32.1269 19.9006 29.3759 19.9006C23.9396 19.9006 19.1566 24.739 19.1566 30.2293C19.1566 35.6637 23.9396 40.4472 29.3759 40.4472C32.1269 40.4472 34.6523 39.3486 36.5499 37.4653L36.5783 38.4805C36.5523 41.585 40.6001 43.6585 43.3251 41.5291C49.3405 36.8375 49.7001 24.7768 43.5333 18.3361C37.6338 12.1745 27.8502 10.9516 20.4292 15.367C10.7288 21.1392 10.5339 32.2811 14.1914 38.6135C19.6051 47.9911 31.1935 48.17 35.3572 46.3954C38.113 45.224 36.8872 41.637 34.2341 42.7081C28.9946 44.8224 20.1785 42.7029 17.0977 35.5913C14.2714 29.073 17.1809 22.1332 21.7278 18.997C26.0051 16.0492 34.0472 15.1844 40.0414 20.4305C46.4726 26.058 43.7424 35.7697 41.4602 38.1153C40.8754 38.7114 39.8209 38.2312 39.915 37.3016L39.9084 23.0879C39.9084 22.6876 39.6345 21.4231 38.298 21.4231L38.0823 21.4245C37.2279 21.4245 36.6128 22.1133 36.6128 23.0278V23.0202Z" fill="white"/>
<path fill-rule="evenodd" clip-rule="evenodd" d="M36.2169 29.8357C36.012 25.8551 33.058 23.4617 29.4899 23.4617H29.3556C25.2382 23.4617 22.9546 26.6995 22.9546 30.3774C22.9546 34.4961 25.7175 37.0972 29.3395 37.0972C33.3783 37.0972 36.0342 34.139 36.2263 30.6399L36.2169 29.8357Z" fill="white"/>
</svg>
