<svg width="287" height="84" viewBox="0 0 287 84" fill="none" xmlns="http://www.w3.org/2000/svg">
<path d="M113.072 33.2646H115.434V51H112.882V37.2002L107.423 44.0557H106.953L101.443 37.2002V51H98.9043V33.2646H101.291L107.194 40.5518L113.072 33.2646ZM126.288 43.9795V48.9434C126.288 49.3411 126.424 49.54 126.694 49.54C126.974 49.54 127.41 49.3327 128.002 48.918V50.3271C127.477 50.6657 127.054 50.8942 126.732 51.0127C126.419 51.1396 126.089 51.2031 125.742 51.2031C124.752 51.2031 124.168 50.8138 123.99 50.0352C123.008 50.7969 121.963 51.1777 120.854 51.1777C120.042 51.1777 119.365 50.9111 118.823 50.3779C118.282 49.8363 118.011 49.1592 118.011 48.3467C118.011 47.6104 118.273 46.9544 118.798 46.3789C119.331 45.7949 120.084 45.3337 121.058 44.9951L124.016 43.9795V43.3574C124.016 41.9525 123.313 41.25 121.908 41.25C120.647 41.25 119.42 41.9017 118.227 43.2051V40.6787C119.124 39.6208 120.414 39.0918 122.099 39.0918C123.36 39.0918 124.371 39.4219 125.133 40.082C125.387 40.2936 125.615 40.5771 125.818 40.9326C126.021 41.2796 126.148 41.6309 126.199 41.9863C126.258 42.3333 126.288 42.9977 126.288 43.9795ZM124.016 48.6895V45.2236L122.467 45.8203C121.68 46.1335 121.121 46.4508 120.791 46.7725C120.469 47.0856 120.309 47.4792 120.309 47.9531C120.309 48.4355 120.461 48.8291 120.766 49.1338C121.079 49.4385 121.481 49.5908 121.972 49.5908C122.708 49.5908 123.389 49.2904 124.016 48.6895ZM128.408 41.1738L132.75 36.9082V39.3203H136.444V41.4023H132.75V47.1279C132.75 48.4652 133.304 49.1338 134.413 49.1338C135.243 49.1338 136.118 48.8545 137.041 48.2959V50.4541C136.152 50.9535 135.183 51.2031 134.134 51.2031C133.076 51.2031 132.196 50.8942 131.493 50.2764C131.273 50.0902 131.091 49.8828 130.947 49.6543C130.803 49.4173 130.681 49.1126 130.579 48.7402C130.486 48.3594 130.439 47.64 130.439 46.582V41.4023H128.408V41.1738ZM137.066 41.1738L141.408 36.9082V39.3203H145.103V41.4023H141.408V47.1279C141.408 48.4652 141.963 49.1338 143.071 49.1338C143.901 49.1338 144.777 48.8545 145.699 48.2959V50.4541C144.811 50.9535 143.841 51.2031 142.792 51.2031C141.734 51.2031 140.854 50.8942 140.151 50.2764C139.931 50.0902 139.749 49.8828 139.605 49.6543C139.462 49.4173 139.339 49.1126 139.237 48.7402C139.144 48.3594 139.098 47.64 139.098 46.582V41.4023H137.066V41.1738ZM147.312 33.2646H149.622V40.8564C150.587 39.68 151.785 39.0918 153.215 39.0918C153.993 39.0918 154.692 39.2865 155.31 39.6758C155.927 40.0651 156.384 40.6025 156.681 41.2881C156.985 41.9736 157.138 42.9935 157.138 44.3477V51H154.827V43.7764C154.827 42.9215 154.616 42.236 154.192 41.7197C153.778 41.195 153.228 40.9326 152.542 40.9326C152.034 40.9326 151.556 41.0638 151.107 41.3262C150.659 41.5885 150.164 42.0244 149.622 42.6338V51H147.312V33.2646ZM170.315 45.3633H162.102C162.161 46.4805 162.533 47.3691 163.219 48.0293C163.913 48.6895 164.806 49.0195 165.897 49.0195C167.421 49.0195 168.826 48.5456 170.112 47.5977V49.8574C169.401 50.3314 168.695 50.6699 167.992 50.873C167.298 51.0762 166.481 51.1777 165.542 51.1777C164.256 51.1777 163.215 50.9111 162.419 50.3779C161.623 49.8447 160.984 49.1296 160.502 48.2324C160.028 47.3268 159.791 46.2816 159.791 45.0967C159.791 43.3193 160.295 41.8763 161.302 40.7676C162.309 39.6504 163.617 39.0918 165.225 39.0918C166.773 39.0918 168.009 39.6335 168.932 40.7168C169.854 41.8001 170.315 43.2516 170.315 45.0713V45.3633ZM162.152 43.9795H168.03C167.971 43.057 167.696 42.346 167.205 41.8467C166.714 41.3473 166.054 41.0977 165.225 41.0977C164.395 41.0977 163.714 41.3473 163.181 41.8467C162.656 42.346 162.313 43.057 162.152 43.9795ZM187.01 39.3203H189.485L184.331 51.2031H183.607L180.142 43.0654L176.739 51.2031H175.99L170.785 39.3203H173.261L176.32 46.4043L179.291 39.3203H181.005L183.963 46.4043L187.01 39.3203ZM198.689 33.2646H201.229V48.6895H209.214V51H198.689V33.2646ZM232.789 33.2646H235.15V51H232.599V37.2002L227.14 44.0557H226.67L221.16 37.2002V51H218.621V33.2646H221.008L226.911 40.5518L232.789 33.2646ZM246.005 43.9795V48.9434C246.005 49.3411 246.14 49.54 246.411 49.54C246.69 49.54 247.126 49.3327 247.719 48.918V50.3271C247.194 50.6657 246.771 50.8942 246.449 51.0127C246.136 51.1396 245.806 51.2031 245.459 51.2031C244.469 51.2031 243.885 50.8138 243.707 50.0352C242.725 50.7969 241.68 51.1777 240.571 51.1777C239.759 51.1777 239.082 50.9111 238.54 50.3779C237.998 49.8363 237.728 49.1592 237.728 48.3467C237.728 47.6104 237.99 46.9544 238.515 46.3789C239.048 45.7949 239.801 45.3337 240.774 44.9951L243.732 43.9795V43.3574C243.732 41.9525 243.03 41.25 241.625 41.25C240.364 41.25 239.137 41.9017 237.943 43.2051V40.6787C238.84 39.6208 240.131 39.0918 241.815 39.0918C243.076 39.0918 244.088 39.4219 244.85 40.082C245.104 40.2936 245.332 40.5771 245.535 40.9326C245.738 41.2796 245.865 41.6309 245.916 41.9863C245.975 42.3333 246.005 42.9977 246.005 43.9795ZM243.732 48.6895V45.2236L242.184 45.8203C241.396 46.1335 240.838 46.4508 240.508 46.7725C240.186 47.0856 240.025 47.4792 240.025 47.9531C240.025 48.4355 240.178 48.8291 240.482 49.1338C240.796 49.4385 241.198 49.5908 241.688 49.5908C242.425 49.5908 243.106 49.2904 243.732 48.6895ZM252.238 39.3203V41.999L252.365 41.7959C253.482 39.9932 254.6 39.0918 255.717 39.0918C256.589 39.0918 257.498 39.5319 258.446 40.4121L257.228 42.4434C256.424 41.6816 255.679 41.3008 254.993 41.3008C254.248 41.3008 253.601 41.6562 253.051 42.3672C252.509 43.0781 252.238 43.9202 252.238 44.8936V51H249.915V39.3203H252.238ZM258.967 41.1738L263.309 36.9082V39.3203H267.003V41.4023H263.309V47.1279C263.309 48.4652 263.863 49.1338 264.972 49.1338C265.801 49.1338 266.677 48.8545 267.6 48.2959V50.4541C266.711 50.9535 265.742 51.2031 264.692 51.2031C263.634 51.2031 262.754 50.8942 262.052 50.2764C261.832 50.0902 261.65 49.8828 261.506 49.6543C261.362 49.4173 261.239 49.1126 261.138 48.7402C261.045 48.3594 260.998 47.64 260.998 46.582V41.4023H258.967V41.1738ZM270.456 34.4072C270.837 34.4072 271.163 34.5384 271.434 34.8008C271.704 35.0632 271.84 35.3848 271.84 35.7656C271.84 36.138 271.704 36.4596 271.434 36.7305C271.163 37.0013 270.837 37.1367 270.456 37.1367C270.101 37.1367 269.787 37.0013 269.517 36.7305C269.246 36.4512 269.11 36.1296 269.11 35.7656C269.11 35.4102 269.246 35.097 269.517 34.8262C269.787 34.5469 270.101 34.4072 270.456 34.4072ZM269.313 39.3203H271.624V51H269.313V39.3203ZM277.286 39.3203V40.8057C278.319 39.6631 279.491 39.0918 280.803 39.0918C281.531 39.0918 282.208 39.2822 282.834 39.6631C283.46 40.0355 283.934 40.5518 284.256 41.2119C284.586 41.8636 284.751 42.9004 284.751 44.3223V51H282.44V44.3477C282.44 43.1543 282.258 42.3037 281.895 41.7959C281.531 41.2796 280.921 41.0215 280.066 41.0215C278.975 41.0215 278.048 41.5674 277.286 42.6592V51H274.925V39.3203H277.286Z" fill="#E0E0E0"/>
<circle cx="41.5532" cy="41.5533" r="28.9191" transform="rotate(-30 41.5532 41.5533)" fill="#333333" stroke="#E0E0E0" stroke-width="3"/>
<path d="M45.277 63.0008L39.9905 50.8113L47.3488 53.7178L50.2553 46.3594L55.5419 58.5489" stroke="#BDBDBD" stroke-width="4"/>
<path d="M54.6755 35.8701L28.1025 46.7091L32.9976 58.2473" stroke="#BDBDBD" stroke-width="4"/>
<path d="M33.3891 39.2249L28.1025 27.0354L35.4609 29.9419L38.3674 22.5836L43.6539 34.7731" stroke="#BDBDBD" stroke-width="4"/>
</svg>
